<?xml version="1.0" encoding="utf-8"?>
<!-- Generator: Adobe Illustrator 19.0.0, SVG Export Plug-In . SVG Version: 6.00 Build 0)  -->
<svg version="1.1" xmlns="http://www.w3.org/2000/svg" xmlns:xlink="http://www.w3.org/1999/xlink" x="0px" y="0px"
	 viewBox="0 0 500 500" style="enable-background:new 0 0 500 500;" xml:space="preserve">
<style type="text/css">
	.st0{display:none;}
	.st1{display:inline;fill:#898989;}
	.st2{fill:#898989;}
</style>
<g id="图层_1" class="st0">
	<path id="XMLID_2_" class="st1" d="M479.2,113.7H20.8C9.4,113.7,0,104.3,0,92.8v-72C0,9.4,9.4,0,20.8,0l458.3,0
		C490.6,0,500,9.4,500,20.8v72C500,104.3,490.6,113.7,479.2,113.7z"/>
	<path id="XMLID_1_" class="st1" d="M479.2,500H20.8C9.4,500,0,490.6,0,479.2V156.2c0-11.5,9.4-20.8,20.8-20.8h458.3
		c11.5,0,20.8,9.4,20.8,20.8v322.9C500,490.6,490.6,500,479.2,500z"/>
</g>
<g id="图层_2">
	<path id="XMLID_8_" class="st2" d="M164.6,500H76.8C34.6,500,0,465.4,0,423.2L0,76.8C0,34.6,34.6,0,76.8,0l87.8,0
		c42.2,0,76.8,34.6,76.8,76.8v346.4C241.4,465.4,206.8,500,164.6,500z"/>
	<path id="XMLID_3_" class="st2" d="M423.2,500h-87.8c-42.2,0-76.8-34.6-76.8-76.8V76.8c0-42.2,34.6-76.8,76.8-76.8l87.8,0
		C465.4,0,500,34.6,500,76.8v346.4C500,465.4,465.4,500,423.2,500z"/>
</g>
</svg>
